<?xml version="1.0" encoding="UTF-8"?>
<svg width="85px" height="64px" viewBox="0 0 85 64" version="1.1" xmlns="http://www.w3.org/2000/svg" xmlns:xlink="http://www.w3.org/1999/xlink">
    <!-- Generator: Sketch 52.5 (67469) - http://www.bohemiancoding.com/sketch -->
    <title>mail</title>
    <desc>Created with Sketch.</desc>
    <g id="Page-1" stroke="none" stroke-width="1" fill="none" fill-rule="evenodd">
        <g id="Desktop---Contact-Us" transform="translate(-1161.000000, -584.000000)" fill="#9f87ba" fill-rule="nonzero">
            <g id="Content" transform="translate(330.000000, 320.000000)">
                <g id="Group-3" transform="translate(640.000000, 96.000000)">
                    <g id="mail">
                        <g transform="translate(191.000000, 168.000000)" id="Shape">
                            <path d="M76.6358974,0 L7.38461538,0 C3.31782564,0 0,3.31421538 0,7.38461538 L0,56.6153846 C0,60.672 3.30305641,64 7.38461538,64 L76.6358974,64 C80.6925128,64 84.0205128,60.6969436 84.0205128,56.6153846 L84.0205128,7.38461538 C84.0205128,3.328 80.7174564,0 76.6358974,0 Z M75.6161641,4.92307692 L42.1668103,38.3725949 L8.42814359,4.92307692 L75.6161641,4.92307692 Z M4.92307692,55.5959795 L4.92307692,8.38055385 L28.6324513,31.8866051 L4.92307692,55.5959795 Z M8.40418462,59.0769231 L32.1284923,35.3526154 L40.4414359,43.5941744 C41.4037333,44.5482667 42.9566359,44.5451487 43.9149949,43.5866256 L52.0205128,35.4811077 L75.6163282,59.0769231 L8.40418462,59.0769231 Z M79.0974359,55.5958154 L55.5016205,32 L79.0974359,8.40402051 L79.0974359,55.5958154 Z"></path>
                        </g>
                    </g>
                </g>
            </g>
        </g>
    </g>
</svg>