<?xml version="1.0" encoding="UTF-8"?>
<svg width="49px" height="64px" viewBox="0 0 49 64" version="1.1" xmlns="http://www.w3.org/2000/svg" xmlns:xlink="http://www.w3.org/1999/xlink">
    <!-- Generator: Sketch 52.5 (67469) - http://www.bohemiancoding.com/sketch -->
    <title>pin</title>
    <desc>Created with Sketch.</desc>
    <g id="Page-1" stroke="none" stroke-width="1" fill="none" fill-rule="evenodd">
        <g id="Desktop---Contact-Us" transform="translate(-557.000000, -584.000000)" fill="#9f87ba" fill-rule="nonzero">
            <g id="Content" transform="translate(330.000000, 320.000000)">
                <g id="Group-3" transform="translate(0.000000, 96.000000)">
                    <g id="pin">
                        <g transform="translate(227.000000, 168.000000)" id="Shape">
                            <path d="M47.7515001,16.7705356 C45.461266,9.3990412 39.5120275,3.42342071 32.2255122,1.17529741 C24.4662197,-1.21857579 16.3769367,0.080923234 10.0320861,4.74054472 C6.99190791,6.97316803 4.46917484,9.91804081 2.73678771,13.2564133 C0.946307213,16.7067857 0,20.5912828 0,24.4901548 C0,29.8086508 1.68872299,34.862897 4.88373318,39.1065188 L24.4731206,64 L44.0381665,39.1382688 L44.0626335,39.1065188 C48.8438563,32.7553986 50.188536,24.6141547 47.7515001,16.7705356 Z M41.0621044,36.8405205 L24.4731206,57.9226296 L7.88401137,36.8405205 C5.1895076,33.2543982 3.76515339,28.9840264 3.76515339,24.4901548 C3.76515339,17.9235348 6.94309943,11.6691645 12.2662343,7.75991744 C17.6381777,3.81479542 24.5071234,2.72092124 31.1118258,4.7584197 C37.2288199,6.64566828 42.2266068,11.6734145 44.1549806,17.8795348 C46.2287761,24.5547798 45.1014133,31.4647746 41.0621044,36.8405205 Z"></path>
                            <path d="M24.4705882,11.2941176 C17.2051246,11.2941176 11.2941176,17.2051246 11.2941176,24.4705882 C11.2941176,31.7360519 17.2051246,37.6470588 24.4705882,37.6470588 C31.7360519,37.6470588 37.6470588,31.7360519 37.6470588,24.4705882 C37.6470588,17.2051246 31.7360519,11.2941176 24.4705882,11.2941176 Z M24.4705882,33.8824067 C19.2809713,33.8824067 15.0587698,29.6603306 15.0587698,24.4705882 C15.0587698,19.2809713 19.2808459,15.0587698 24.4705882,15.0587698 C29.6603306,15.0587698 33.8824067,19.2808459 33.8824067,24.4705882 C33.8824067,29.6602051 29.6602051,33.8824067 24.4705882,33.8824067 Z"></path>
                        </g>
                    </g>
                </g>
            </g>
        </g>
    </g>
</svg>