<?xml version="1.0" encoding="UTF-8"?>
<svg width="64px" height="64px" viewBox="0 0 64 64" version="1.1" xmlns="http://www.w3.org/2000/svg" xmlns:xlink="http://www.w3.org/1999/xlink">
    <!-- Generator: Sketch 52.5 (67469) - http://www.bohemiancoding.com/sketch -->
    <title>phone</title>
    <desc>Created with Sketch.</desc>
    <g id="Page-1" stroke="none" stroke-width="1" fill="none" fill-rule="evenodd">
        <g id="Desktop---Contact-Us" transform="translate(-862.000000, -584.000000)" fill="#9f87ba" fill-rule="nonzero">
            <g id="Content" transform="translate(330.000000, 320.000000)">
                <g id="Group-3" transform="translate(320.000000, 96.000000)">
                    <g id="phone">
                        <g transform="translate(212.000000, 168.000000)" id="Shape">
                            <path d="M45.9967777,64 C43.9308526,64 41.8824269,63.634765 39.8793745,62.9070448 C31.0549444,59.7014263 22.8639914,54.4803905 16.1917333,47.8082891 C9.51947524,41.1361878 4.29841453,32.9451487 1.09290575,24.1207607 C0.0628180938,21.284877 -0.241170885,18.3574971 0.189688494,15.4196176 C0.593298861,12.6677304 1.65926021,9.996215 3.27245173,7.69380943 C4.89276798,5.38127928 7.05293966,3.45785817 9.51935024,2.13153757 C12.1495049,0.717220583 15.0202758,0 18.0521659,0 C18.9951317,0 19.8101021,0.658847977 20.00772,1.58081016 L23.1468562,16.2300843 C23.288976,16.8934321 23.0851084,17.5836538 22.6055008,18.0633841 L17.2415703,23.4271641 C22.3016368,33.4875015 30.5123391,41.6981647 40.5727244,46.7582072 L45.9365299,41.3943022 C46.4162625,40.9146969 47.1066125,40.7110802 47.7698384,40.8529494 L62.4191823,43.9920706 C63.3412739,44.1896875 64,45.0046541 64,45.9476154 C64,48.9794911 63.282776,51.8503733 61.8683273,54.4805154 C60.5420004,56.9469143 58.6185701,59.1070757 56.306029,60.7273842 C54.0037374,62.3405681 51.3322093,63.4065243 48.5801841,63.8101328 C47.7178403,63.9367526 46.8556216,63.999875 45.9967777,64 Z M16.4542238,4.08733236 C12.4549938,4.52881425 8.9053725,6.62497827 6.54820796,9.98921529 C3.89755406,13.7721851 3.27945147,18.4251193 4.85239444,22.7551917 C11.015171,39.7202458 24.2798151,52.9848268 41.24495,59.147574 C45.574918,60.7205095 50.2278743,60.1025349 54.0109872,57.4517686 C57.3752402,55.0946153 59.4714142,51.5450108 59.9128982,47.5457999 L47.9957052,44.9921546 L42.3939083,50.5939249 C41.797805,51.1900254 40.8920878,51.3483939 40.1293654,50.9899086 C28.2310468,45.4001379 18.599896,35.7690329 13.0100987,23.8707709 C12.6517367,23.1079272 12.8099809,22.2022144 13.4060843,21.6062388 L19.0078812,16.0044686 L16.4542238,4.08733236 Z"></path>
                        </g>
                    </g>
                </g>
            </g>
        </g>
    </g>
</svg>